<?xml version="1.0" encoding="UTF-8" standalone="no"?>
<!DOCTYPE svg PUBLIC "-//W3C//DTD SVG 1.1//EN"
 "http://www.w3.org/Graphics/SVG/1.1/DTD/svg11.dtd">
<!-- Generated by graphviz version 2.43.0 (0)
 -->
<!-- Title: %3 Pages: 1 -->
<svg width="254pt" height="404pt"
 viewBox="0.00 0.00 254.39 404.00" xmlns="http://www.w3.org/2000/svg" xmlns:xlink="http://www.w3.org/1999/xlink">
<g id="graph0" class="graph" transform="scale(1 1) rotate(0) translate(4 400)">
<title>%3</title>
<polygon fill="white" stroke="transparent" points="-4,4 -4,-400 250.39,-400 250.39,4 -4,4"/>
<!-- San Francisco -->
<g id="node1" class="node">
<title>San Francisco</title>
<ellipse fill="none" stroke="black" cx="102.29" cy="-378" rx="76.09" ry="18"/>
<text text-anchor="middle" x="102.29" y="-374.3" font-family="Times,serif" font-size="14.00">San Francisco</text>
</g>
<!-- Denver -->
<g id="node2" class="node">
<title>Denver</title>
<ellipse fill="none" stroke="black" cx="138.29" cy="-306" rx="44.39" ry="18"/>
<text text-anchor="middle" x="138.29" y="-302.3" font-family="Times,serif" font-size="14.00">Denver</text>
</g>
<!-- San Francisco&#45;&#45;Denver -->
<g id="edge1" class="edge">
<title>San Francisco&#45;&#45;Denver</title>
<path fill="none" stroke="black" d="M111.01,-360.05C116.67,-349.05 124.02,-334.76 129.66,-323.79"/>
</g>
<!-- Los Angeles -->
<g id="node3" class="node">
<title>Los Angeles</title>
<ellipse fill="none" stroke="black" cx="66.29" cy="-234" rx="66.09" ry="18"/>
<text text-anchor="middle" x="66.29" y="-230.3" font-family="Times,serif" font-size="14.00">Los Angeles</text>
</g>
<!-- Denver&#45;&#45;Los Angeles -->
<g id="edge2" class="edge">
<title>Denver&#45;&#45;Los Angeles</title>
<path fill="none" stroke="black" d="M121.96,-289.12C110.42,-277.9 95,-262.91 83.32,-251.55"/>
</g>
<!-- Chicago -->
<g id="node4" class="node">
<title>Chicago</title>
<ellipse fill="none" stroke="black" cx="198.29" cy="-234" rx="48.19" ry="18"/>
<text text-anchor="middle" x="198.29" y="-230.3" font-family="Times,serif" font-size="14.00">Chicago</text>
</g>
<!-- Denver&#45;&#45;Chicago -->
<g id="edge4" class="edge">
<title>Denver&#45;&#45;Chicago</title>
<path fill="none" stroke="black" d="M152.21,-288.76C161.76,-277.62 174.41,-262.87 184.04,-251.63"/>
</g>
<!-- Los Angeles&#45;&#45;San Francisco -->
<g id="edge3" class="edge">
<title>Los Angeles&#45;&#45;San Francisco</title>
<path fill="none" stroke="black" d="M69.43,-252.18C72.85,-270.2 78.71,-299.27 85.29,-324 88.53,-336.14 92.86,-349.62 96.34,-359.94"/>
</g>
<!-- Washington -->
<g id="node5" class="node">
<title>Washington</title>
<ellipse fill="none" stroke="black" cx="104.29" cy="-162" rx="65.79" ry="18"/>
<text text-anchor="middle" x="104.29" y="-158.3" font-family="Times,serif" font-size="14.00">Washington</text>
</g>
<!-- Chicago&#45;&#45;Washington -->
<g id="edge5" class="edge">
<title>Chicago&#45;&#45;Washington</title>
<path fill="none" stroke="black" d="M177.43,-217.46C162.18,-206.11 141.54,-190.74 126.08,-179.22"/>
</g>
<!-- New York -->
<g id="node6" class="node">
<title>New York</title>
<ellipse fill="none" stroke="black" cx="153.29" cy="-90" rx="55.49" ry="18"/>
<text text-anchor="middle" x="153.29" y="-86.3" font-family="Times,serif" font-size="14.00">New York</text>
</g>
<!-- Washington&#45;&#45;New York -->
<g id="edge6" class="edge">
<title>Washington&#45;&#45;New York</title>
<path fill="none" stroke="black" d="M116.16,-144.05C123.86,-133.05 133.86,-118.76 141.54,-107.79"/>
</g>
<!-- New York&#45;&#45;Chicago -->
<g id="edge7" class="edge">
<title>New York&#45;&#45;Chicago</title>
<path fill="none" stroke="black" d="M163.08,-108.2C168.5,-118.35 175,-131.6 179.29,-144 187.72,-168.34 193.12,-197.76 195.93,-215.93"/>
</g>
<!-- Detroit -->
<g id="node7" class="node">
<title>Detroit</title>
<ellipse fill="none" stroke="black" cx="194.29" cy="-18" rx="44.39" ry="18"/>
<text text-anchor="middle" x="194.29" y="-14.3" font-family="Times,serif" font-size="14.00">Detroit</text>
</g>
<!-- New York&#45;&#45;Detroit -->
<g id="edge8" class="edge">
<title>New York&#45;&#45;Detroit</title>
<path fill="none" stroke="black" d="M163.22,-72.05C169.67,-61.05 178.03,-46.76 184.46,-35.79"/>
</g>
<!-- Detroit&#45;&#45;Chicago -->
<g id="edge9" class="edge">
<title>Detroit&#45;&#45;Chicago</title>
<path fill="none" stroke="black" d="M203.6,-35.6C208.75,-45.76 214.64,-59.23 217.29,-72 228.05,-123.81 212.76,-186.35 203.88,-215.92"/>
</g>
</g>
</svg>
