<?xml version="1.0" encoding="UTF-8" standalone="no"?>
<!DOCTYPE svg PUBLIC "-//W3C//DTD SVG 1.1//EN"
 "http://www.w3.org/Graphics/SVG/1.1/DTD/svg11.dtd">
<!-- Generated by graphviz version 2.43.0 (0)
 -->
<!-- Title: %3 Pages: 1 -->
<svg width="269pt" height="259pt"
 viewBox="0.00 0.00 269.39 259.15" xmlns="http://www.w3.org/2000/svg" xmlns:xlink="http://www.w3.org/1999/xlink">
<g id="graph0" class="graph" transform="scale(1 1) rotate(0) translate(4 255.15)">
<title>%3</title>
<polygon fill="white" stroke="transparent" points="-4,4 -4,-255.15 265.39,-255.15 265.39,4 -4,4"/>
<!-- San Francisco -->
<g id="node1" class="node">
<title>San Francisco</title>
<ellipse fill="none" stroke="black" cx="127.67" cy="-18" rx="76.09" ry="18"/>
<text text-anchor="middle" x="127.67" y="-14.3" font-family="Times,serif" font-size="14.00">San Francisco</text>
</g>
<!-- Denver -->
<g id="node2" class="node">
<title>Denver</title>
<ellipse fill="none" stroke="black" cx="142.95" cy="-90.96" rx="44.39" ry="18"/>
<text text-anchor="middle" x="142.95" y="-87.26" font-family="Times,serif" font-size="14.00">Denver</text>
</g>
<!-- San Francisco&#45;&#45;Denver -->
<g id="edge1" class="edge">
<title>San Francisco&#45;&#45;Denver</title>
<path fill="none" stroke="black" d="M131.45,-36.04C133.8,-47.26 136.81,-61.65 139.16,-72.88"/>
</g>
<!-- Los Angeles -->
<g id="node3" class="node">
<title>Los Angeles</title>
<ellipse fill="none" stroke="black" cx="195.1" cy="-37.96" rx="66.09" ry="18"/>
<text text-anchor="middle" x="195.1" y="-34.26" font-family="Times,serif" font-size="14.00">Los Angeles</text>
</g>
<!-- Denver&#45;&#45;Los Angeles -->
<g id="edge2" class="edge">
<title>Denver&#45;&#45;Los Angeles</title>
<path fill="none" stroke="black" d="M159.45,-74.19C165.3,-68.25 171.89,-61.54 177.8,-55.53"/>
</g>
<!-- Chicago -->
<g id="node4" class="node">
<title>Chicago</title>
<ellipse fill="none" stroke="black" cx="119.87" cy="-165.03" rx="48.19" ry="18"/>
<text text-anchor="middle" x="119.87" y="-161.33" font-family="Times,serif" font-size="14.00">Chicago</text>
</g>
<!-- Denver&#45;&#45;Chicago -->
<g id="edge4" class="edge">
<title>Denver&#45;&#45;Chicago</title>
<path fill="none" stroke="black" d="M137.36,-108.89C133.76,-120.45 129.09,-135.43 125.49,-147.01"/>
</g>
<!-- Los Angeles&#45;&#45;San Francisco -->
<g id="edge3" class="edge">
<title>Los Angeles&#45;&#45;San Francisco</title>
<path fill="none" stroke="black" d="M150.12,-24.65C150.03,-24.62 149.93,-24.59 149.83,-24.56"/>
</g>
<!-- Washington -->
<g id="node5" class="node">
<title>Washington</title>
<ellipse fill="none" stroke="black" cx="168.93" cy="-226.9" rx="65.79" ry="18"/>
<text text-anchor="middle" x="168.93" y="-223.2" font-family="Times,serif" font-size="14.00">Washington</text>
</g>
<!-- Chicago&#45;&#45;Washington -->
<g id="edge5" class="edge">
<title>Chicago&#45;&#45;Washington</title>
<path fill="none" stroke="black" d="M133.8,-182.59C140.37,-190.88 148.2,-200.76 154.8,-209.08"/>
</g>
<!-- New York -->
<g id="node6" class="node">
<title>New York</title>
<ellipse fill="none" stroke="black" cx="98.45" cy="-233.15" rx="55.49" ry="18"/>
<text text-anchor="middle" x="98.45" y="-229.45" font-family="Times,serif" font-size="14.00">New York</text>
</g>
<!-- Washington&#45;&#45;New York -->
<g id="edge6" class="edge">
<title>Washington&#45;&#45;New York</title>
<path fill="none" stroke="black" d="M106.26,-232.46C106.11,-232.47 105.96,-232.48 105.82,-232.5"/>
</g>
<!-- New York&#45;&#45;Chicago -->
<g id="edge7" class="edge">
<title>New York&#45;&#45;Chicago</title>
<path fill="none" stroke="black" d="M104.19,-214.89C107.26,-205.12 111.04,-193.12 114.12,-183.34"/>
</g>
<!-- Detroit -->
<g id="node7" class="node">
<title>Detroit</title>
<ellipse fill="none" stroke="black" cx="44.2" cy="-187.81" rx="44.39" ry="18"/>
<text text-anchor="middle" x="44.2" y="-184.11" font-family="Times,serif" font-size="14.00">Detroit</text>
</g>
<!-- New York&#45;&#45;Detroit -->
<g id="edge8" class="edge">
<title>New York&#45;&#45;Detroit</title>
<path fill="none" stroke="black" d="M78.25,-216.27C73.55,-212.34 68.55,-208.16 63.87,-204.25"/>
</g>
<!-- Detroit&#45;&#45;Chicago -->
<g id="edge9" class="edge">
<title>Detroit&#45;&#45;Chicago</title>
<path fill="none" stroke="black" d="M79.82,-177.09C80.59,-176.86 81.35,-176.63 82.12,-176.39"/>
</g>
</g>
</svg>
